<?xml version="1.0" encoding="utf-8"?>
<svg version="1.1" xmlns:xlink="http://www.w3.org/1999/xlink" width="30px" height="30px" xmlns="http://www.w3.org/2000/svg">
  <g transform="matrix(1 0 0 1 -405 -188 )">
    <path d="M 420 189  C 427.84 189  434 195.16  434 203  C 434 210.84  427.84 217  420 217  C 412.16 217  406 210.84  406 203  C 406 195.16  412.16 189  420 189  Z " fill-rule="nonzero" fill="#ffffff" stroke="none" />
    <path d="M 420 189  C 427.84 189  434 195.16  434 203  C 434 210.84  427.84 217  420 217  C 412.16 217  406 210.84  406 203  C 406 195.16  412.16 189  420 189  Z " stroke-width="2" stroke="#1abc9c" fill="none" />
  </g>
</svg>