<?xml version="1.0" encoding="utf-8"?>
<svg version="1.1" xmlns:xlink="http://www.w3.org/1999/xlink" width="30px" height="30px" xmlns="http://www.w3.org/2000/svg">
  <g transform="matrix(1 0 0 1 -607 -188 )">
    <path d="M 622 189  C 629.84 189  636 195.16  636 203  C 636 210.84  629.84 217  622 217  C 614.16 217  608 210.84  608 203  C 608 195.16  614.16 189  622 189  Z " fill-rule="nonzero" fill="#ffffff" stroke="none" />
    <path d="M 622 189  C 629.84 189  636 195.16  636 203  C 636 210.84  629.84 217  622 217  C 614.16 217  608 210.84  608 203  C 608 195.16  614.16 189  622 189  Z " stroke-width="2" stroke="#e4e4e4" fill="none" />
  </g>
</svg>