<?xml version="1.0" encoding="utf-8"?>
<svg version="1.1" xmlns:xlink="http://www.w3.org/1999/xlink" width="100px" height="40px" xmlns="http://www.w3.org/2000/svg">
  <g transform="matrix(1 0 0 1 -1260 -376 )">
    <path d="M 1261 379  A 2 2 0 0 1 1263 377 L 1357 377  A 2 2 0 0 1 1359 379 L 1359 413  A 2 2 0 0 1 1357 415 L 1263 415  A 2 2 0 0 1 1261 413 L 1261 379  Z " fill-rule="nonzero" fill="#ffffff" stroke="none" />
    <path d="M 1260.5 379  A 2.5 2.5 0 0 1 1263 376.5 L 1357 376.5  A 2.5 2.5 0 0 1 1359.5 379 L 1359.5 413  A 2.5 2.5 0 0 1 1357 415.5 L 1263 415.5  A 2.5 2.5 0 0 1 1260.5 413 L 1260.5 379  Z " stroke-width="1" stroke-dasharray="3,1" stroke="#1abc9c" fill="none" stroke-dashoffset="0.5" />
  </g>
</svg>