<?xml version="1.0" encoding="utf-8"?>
<svg version="1.1" xmlns:xlink="http://www.w3.org/1999/xlink" width="100px" height="40px" xmlns="http://www.w3.org/2000/svg">
  <g transform="matrix(1 0 0 1 -1260 -429 )">
    <path d="M 1261 432  A 2 2 0 0 1 1263 430 L 1357 430  A 2 2 0 0 1 1359 432 L 1359 466  A 2 2 0 0 1 1357 468 L 1263 468  A 2 2 0 0 1 1261 466 L 1261 432  Z " fill-rule="nonzero" fill="#ffffff" stroke="none" />
    <path d="M 1260.5 432  A 2.5 2.5 0 0 1 1263 429.5 L 1357 429.5  A 2.5 2.5 0 0 1 1359.5 432 L 1359.5 466  A 2.5 2.5 0 0 1 1357 468.5 L 1263 468.5  A 2.5 2.5 0 0 1 1260.5 466 L 1260.5 432  Z " stroke-width="1" stroke-dasharray="3,1" stroke="#1abc9c" fill="none" stroke-dashoffset="0.5" />
  </g>
</svg>