<?xml version="1.0" encoding="utf-8"?>
<svg version="1.1" xmlns:xlink="http://www.w3.org/1999/xlink" width="140px" height="40px" xmlns="http://www.w3.org/2000/svg">
  <g transform="matrix(1 0 0 1 -585 -710 )">
    <path d="M 586 713  A 2 2 0 0 1 588 711 L 722 711  A 2 2 0 0 1 724 713 L 724 747  A 2 2 0 0 1 722 749 L 588 749  A 2 2 0 0 1 586 747 L 586 713  Z " fill-rule="nonzero" fill="#ffffff" stroke="none" />
    <path d="M 585.5 713  A 2.5 2.5 0 0 1 588 710.5 L 722 710.5  A 2.5 2.5 0 0 1 724.5 713 L 724.5 747  A 2.5 2.5 0 0 1 722 749.5 L 588 749.5  A 2.5 2.5 0 0 1 585.5 747 L 585.5 713  Z " stroke-width="1" stroke-dasharray="3,1" stroke="#d7dde4" fill="none" stroke-dashoffset="0.5" />
  </g>
</svg>