<?xml version="1.0" encoding="utf-8"?>
<svg version="1.1" xmlns:xlink="http://www.w3.org/1999/xlink" width="22px" height="22px" xmlns="http://www.w3.org/2000/svg">
  <g transform="matrix(1 0 0 1 -44 -4 )">
    <path d="M 55 4  C 61.16 4  66 8.84  66 15  C 66 21.16  61.16 26  55 26  C 48.84 26  44 21.16  44 15  C 44 8.84  48.84 4  55 4  Z " fill-rule="nonzero" fill="#ffffff" stroke="none" />
    <path d="M 55 4.5  C 60.88 4.5  65.5 9.12  65.5 15  C 65.5 20.88  60.88 25.5  55 25.5  C 49.12 25.5  44.5 20.88  44.5 15  C 44.5 9.12  49.12 4.5  55 4.5  Z " stroke-width="1" stroke="#ffffff" fill="none" />
  </g>
</svg>