<?xml version="1.0" encoding="utf-8"?>
<svg version="1.1" xmlns:xlink="http://www.w3.org/1999/xlink" width="15px" height="6px" xmlns="http://www.w3.org/2000/svg">
  <g transform="matrix(1 0 0 1 -621 -310 )">
    <path d="M 14.7216796875001 0.197916666666657  C 14.9072265625 0.329861111111114  15 0.486111111111114  15 0.666666666666657  C 15 0.847222222222229  14.9072265625 1.00347222222223  14.7216796875001 1.13541666666666  L 8.1591796875 5.80208333333334  C 7.97363281249994 5.93402777777777  7.75390624999994 6  7.5 6  C 7.24609375000006 6  7.02636718750006 5.93402777777777  6.8408203125 5.80208333333334  L 0.278320312499938 1.13541666666666  C 0.092773437500032 1.00347222222223  0 0.847222222222229  0 0.666666666666657  C 0 0.486111111111114  0.092773437500032 0.329861111111114  0.278320312499938 0.197916666666657  C 0.463867187500002 0.0659722222222285  0.683593750000003 0  0.937499999999941 0  L 14.0625000000001 0  C 14.31640625 0  14.5361328125 0.0659722222222285  14.7216796875001 0.197916666666657  Z " fill-rule="nonzero" fill="#cccccc" stroke="none" transform="matrix(1 0 0 1 621 310 )" />
  </g>
</svg>