<?xml version="1.0" encoding="utf-8"?>
<svg version="1.1" xmlns:xlink="http://www.w3.org/1999/xlink" width="21px" height="20px" xmlns="http://www.w3.org/2000/svg">
  <g transform="matrix(1 0 0 1 -246 -93 )">
    <path d="M 17.9896623018608 11.4263445050662  C 17.9983459682977 11.4471291244479  18.0026878015162 11.4783060535203  18.0026878015162 11.5198752922838  L 18.0026878015162 19.0023382696804  C 18.0026878015162 19.2725383216421  17.9201929703653 19.5063652896856  17.7552033080634 19.7038191738114  C 17.5902136457615 19.9012730579371  17.3948311509304 20  17.16905582357 20  L 12.1672639558925 20  L 12.1672639558925 14.0140296180826  L 11.4436090225564 14.0140296180826  L 8.83273604410749 14.0140296180826  L 8.83273604410749 20  L 3.83094417643004 20  C 3.60516884906959 20  3.40978635423845 19.9012730579371  3.2447966919366 19.7038191738114  C 3.07980702963473 19.5063652896856  2.9973121984838 19.2725383216421  2.9973121984838 19.0023382696804  L 2.9973121984838 11.5198752922838  C 2.9973121984838 11.5094829825929  2.99948311509305 11.4938945180566  3.00382494831151 11.473109898675  C 3.00816678152998 11.4523252792933  3.01033769813921 11.4367368147571  3.01033769813921 11.4263445050662  L 10.5 4.03741231488704  L 17.9896623018608 11.4263445050662  Z M 20.9985527222605 10.0779423226813  C 21.0072363886974 10.2182385035073  20.9768435561681 10.3403481423747  20.9073742246726 10.444271239283  L 20.0997932460372 11.597817614965  C 20.0303239145417 11.6913484021824  19.9391454169538 11.748506105482  19.8262577532736 11.7692907248636  L 19.7871812543074 11.7692907248636  C 19.6742935906271 11.7692907248636  19.5831150930393 11.7329176409457  19.5136457615438 11.6601714731099  L 16.6981990839597 8.85069129200954  L 10.5 2.66562743569762  L 1.48635423845623 11.6601714731099  C 1.38215024121296 11.7433099506365  1.27794624396968 11.7796830345544  1.1737422467264 11.7692907248636  C 1.06085458304617 11.748506105482  0.969676085458308 11.6913484021824  0.9002067539628 11.597817614965  L 0.0926257753273684 10.444271239283  C 0.0231564438318461 10.3403481423747  -0.00723638869744292 10.2182385035073  0.00144727773949249 10.0779423226813  C 0.0101309441764297 9.937646141855  0.0578911095796091 9.82592881267857  0.144727773948992 9.74279033515199  L 9.51006202618884 0.405300077942343  C 9.78793935217093 0.135100025980762  10.1179186767746 0  10.5 0  C 10.8820813232254 0  11.2120606478291 0.135100025980762  11.4899379738112 0.405300077942343  L 14.6681598897312 3.58534684333591  L 14.6681598897312 0.545596258768455  C 14.6681598897312 0.400103923096879  14.7072363886974 0.280592361652339  14.7853893866299 0.187061574434892  C 14.8635423845624 0.0935307872175031  14.9634045485872 0.0467653936087231  15.0849758787043 0.0467653936087231  L 17.5858718125431 0.0467653936087231  C 17.7074431426602 0.0467653936087231  17.807305306685 0.0935307872175031  17.8854583046175 0.187061574434892  C 17.9636113025499 0.280592361652339  18.0026878015162 0.400103923096879  18.0026878015162 0.545596258768455  L 18.0026878015162 6.90568978955577  L 20.855272226051 9.74279033515199  C 20.9421088904204 9.82592881267857  20.9898690558236 9.937646141855  20.9985527222605 10.0779423226813  Z " fill-rule="nonzero" fill="#ffffff" stroke="none" transform="matrix(1 0 0 1 246 93 )" />
  </g>
</svg>