<?xml version="1.0" encoding="utf-8"?>
<svg version="1.1" xmlns:xlink="http://www.w3.org/1999/xlink" width="20px" height="20px" xmlns="http://www.w3.org/2000/svg">
  <g transform="matrix(1 0 0 1 -900 -237 )">
    <path d="M 908.118131381105 244.409830056251  L 910 238.61803398875  L 911.881868618895 244.409830056251  L 917.971723394364 244.409830056251  L 913.044927387734 247.989356881874  L 914.92679600663 253.781152949375  L 910 250.201626123751  L 905.07320399337 253.781152949375  L 906.955072612266 247.989356881874  L 902.028276605636 244.409830056251  L 908.118131381105 244.409830056251  Z " fill-rule="nonzero" fill="#1abc9c" stroke="none" />
    <path d="M 907.754860117102 243.909830056251  L 910 237  L 912.245139882898 243.909830056251  L 919.510565162951 243.909830056251  L 913.632712640027 248.180339887499  L 915.877852522925 255.090169943749  L 910 250.819660112501  L 904.122147477075 255.090169943749  L 906.367287359973 248.180339887499  L 900.489434837049 243.909830056251  L 907.754860117102 243.909830056251  Z M 910 240.2360679775  L 908.481402645107 244.909830056251  L 903.567118374224 244.909830056251  L 907.542857864558 247.798373876249  L 906.024260509666 252.472135955  L 910 249.583592135001  L 913.975739490334 252.472135955  L 912.457142135442 247.798373876249  L 916.432881625776 244.909830056251  L 911.518597354893 244.909830056251  L 910 240.2360679775  Z " fill-rule="nonzero" fill="#1abc9c" stroke="none" />
  </g>
</svg>