<?xml version="1.0" encoding="utf-8"?>
<svg version="1.1" xmlns:xlink="http://www.w3.org/1999/xlink" width="380px" height="200px" xmlns="http://www.w3.org/2000/svg">
  <g transform="matrix(1 0 0 1 -281 -263 )">
    <path d="M 282 269  A 5 5 0 0 1 287 264 L 655 264  A 5 5 0 0 1 660 269 L 660 457  A 5 5 0 0 1 655 462 L 287 462  A 5 5 0 0 1 282 457 L 282 269  Z " fill-rule="nonzero" fill="#fbfbfb" stroke="none" />
    <path d="M 281.5 269  A 5.5 5.5 0 0 1 287 263.5 L 655 263.5  A 5.5 5.5 0 0 1 660.5 269 L 660.5 457  A 5.5 5.5 0 0 1 655 462.5 L 287 462.5  A 5.5 5.5 0 0 1 281.5 457 L 281.5 269  Z " stroke-width="1" stroke-dasharray="9,4" stroke="#d9d9d9" fill="none" stroke-dashoffset="0.5" />
  </g>
</svg>