<?xml version="1.0" encoding="utf-8"?>
<svg version="1.1" xmlns:xlink="http://www.w3.org/1999/xlink" width="380px" height="200px" xmlns="http://www.w3.org/2000/svg">
  <g transform="matrix(1 0 0 1 -839 -263 )">
    <path d="M 840 269  A 5 5 0 0 1 845 264 L 1213 264  A 5 5 0 0 1 1218 269 L 1218 457  A 5 5 0 0 1 1213 462 L 845 462  A 5 5 0 0 1 840 457 L 840 269  Z " fill-rule="nonzero" fill="#fbfbfb" stroke="none" />
    <path d="M 839.5 269  A 5.5 5.5 0 0 1 845 263.5 L 1213 263.5  A 5.5 5.5 0 0 1 1218.5 269 L 1218.5 457  A 5.5 5.5 0 0 1 1213 462.5 L 845 462.5  A 5.5 5.5 0 0 1 839.5 457 L 839.5 269  Z " stroke-width="1" stroke-dasharray="9,4" stroke="#d9d9d9" fill="none" stroke-dashoffset="0.5" />
  </g>
</svg>