<?xml version="1.0" encoding="utf-8"?>
<svg version="1.1" xmlns:xlink="http://www.w3.org/1999/xlink" width="40px" height="40px" xmlns="http://www.w3.org/2000/svg">
  <g transform="matrix(1 0 0 1 -54 -65 )">
    <path d="M 54.5 85  A 19.5 19.5 0 0 1 74 65.5 A 19.5 19.5 0 0 1 93.5 85 A 19.5 19.5 0 0 1 74 104.5 A 19.5 19.5 0 0 1 54.5 85 Z " fill-rule="nonzero" fill="#ffffff" stroke="none" />
    <path d="M 54.5 85  A 19.5 19.5 0 0 1 74 65.5 A 19.5 19.5 0 0 1 93.5 85 A 19.5 19.5 0 0 1 74 104.5 A 19.5 19.5 0 0 1 54.5 85 Z " stroke-width="1" stroke="#1abc9c" fill="none" />
  </g>
</svg>