<?xml version="1.0" encoding="utf-8"?>
<svg version="1.1" xmlns:xlink="http://www.w3.org/1999/xlink" width="10px" height="10px" xmlns="http://www.w3.org/2000/svg">
  <g transform="matrix(1 0 0 1 -274 -349 )">
    <path d="M 279 350  C 281.24 350  283 351.76  283 354  C 283 356.24  281.24 358  279 358  C 276.76 358  275 356.24  275 354  C 275 351.76  276.76 350  279 350  Z " fill-rule="nonzero" fill="#ffffff" stroke="none" />
    <path d="M 279 350  C 281.24 350  283 351.76  283 354  C 283 356.24  281.24 358  279 358  C 276.76 358  275 356.24  275 354  C 275 351.76  276.76 350  279 350  Z " stroke-width="2" stroke="#00a854" fill="none" />
  </g>
</svg>