<?xml version="1.0" encoding="utf-8"?>
<svg version="1.1" xmlns:xlink="http://www.w3.org/1999/xlink" width="10px" height="10px" xmlns="http://www.w3.org/2000/svg">
  <g transform="matrix(1 0 0 1 -274 -303 )">
    <path d="M 279 304  C 281.24 304  283 305.76  283 308  C 283 310.24  281.24 312  279 312  C 276.76 312  275 310.24  275 308  C 275 305.76  276.76 304  279 304  Z " fill-rule="nonzero" fill="#ffffff" stroke="none" />
    <path d="M 279 304  C 281.24 304  283 305.76  283 308  C 283 310.24  281.24 312  279 312  C 276.76 312  275 310.24  275 308  C 275 305.76  276.76 304  279 304  Z " stroke-width="2" stroke="#f04134" fill="none" />
  </g>
</svg>