<?xml version="1.0" encoding="utf-8"?>
<svg version="1.1" xmlns:xlink="http://www.w3.org/1999/xlink" width="140px" height="40px" xmlns="http://www.w3.org/2000/svg">
  <g transform="matrix(1 0 0 1 -660 -290 )">
    <path d="M 661 293  A 2 2 0 0 1 663 291 L 797 291  A 2 2 0 0 1 799 293 L 799 327  A 2 2 0 0 1 797 329 L 663 329  A 2 2 0 0 1 661 327 L 661 293  Z " fill-rule="nonzero" fill="#ffffff" stroke="none" />
    <path d="M 660.5 293  A 2.5 2.5 0 0 1 663 290.5 L 797 290.5  A 2.5 2.5 0 0 1 799.5 293 L 799.5 327  A 2.5 2.5 0 0 1 797 329.5 L 663 329.5  A 2.5 2.5 0 0 1 660.5 327 L 660.5 293  Z " stroke-width="1" stroke-dasharray="3,1" stroke="#1abc9c" fill="none" stroke-dashoffset="0.5" />
  </g>
</svg>